<svg id="レイヤー_1" data-name="レイヤー 1" xmlns="http://www.w3.org/2000/svg" viewBox="0 0 92.6 52.86"><defs><style>.cls-1,.cls-2{fill:#231815;}.cls-1{stroke:#231815;stroke-miterlimit:10;}</style></defs><path class="cls-1" d="M24.94,42.15" transform="translate(0 -0.03)"/><path class="cls-1" d="M71.7,32.67" transform="translate(0 -0.03)"/><path class="cls-2" d="M154.43,88.24" transform="translate(0 -0.03)"/><path class="cls-2" d="M11.13.1C8.89,9.51.54,16.63,0,26.55c-.14,2.82,1,5.6,4.09,6.06,4.5.69,7.38-3.6,9.38-6.89.51-.82-1.66-3.7-2.16-2.86-1.78,2.94-4.1,6.57-8,6.61a4.18,4.18,0,0,1-1.22-.12c.09,1.17.13,1.35.11.53.15-1,.08-2,.26-3a24.5,24.5,0,0,1,1.73-5.34C7,15.19,11.66,9.84,13.3,3c.25-1.06-2-3.52-2.17-2.87Z" transform="translate(0 -0.03)"/><path class="cls-2" d="M24.13,11.26c-3.3-1.06-6.35.33-8.42,3s-4.29,6.51-4.51,10.07c-.17,2.65.72,5.92,3.49,6.89s5.61-.68,7.41-2.81a51.72,51.72,0,0,0,6.08-9.93C29.42,16,29.42,13.09,26.44,12c-2-.76-4.88-.23-5.77,2-1.08,2.65,1.27,5.3,3.64,6.16,8,2.83,12.08-6.36,13.77-12.35.39-1.36-2.37-2.15-3.18-1.42-1.55,1.34-5.54,5-3.95,7.32A4,4,0,0,0,33.86,15c2.22.37,4.54.46,6.79.69l-1.86-2a20.31,20.31,0,0,0-4.63,9c-.53,2.31-1.33,6.51.69,8.29,4.86,4.3,11.2-4.57,12.88-8.13.64-1.36-2.9-2.39-3.6-.91a17.42,17.42,0,0,1-3.7,5.21c-.41.39-2,2.06-2.72,1.87s-.4-2.3-.34-3a18.88,18.88,0,0,1,4.7-10.87c.9-1.06-1.18-1.9-1.86-2-1.7-.17-4.83.1-6.3-.63-.89,0-.66-.17.66-.49A11.75,11.75,0,0,1,35.26,11a13.64,13.64,0,0,1,2.41-2.73L34.49,6.86c-1.05,3.71-2.27,8.18-5.74,10.36-1.44.9-4,1.52-4.59-.76a2,2,0,0,1,.28-1.81c1,.16,1.25.6.83,1.33,0,.85-.92,1.93-1.32,2.65-.64,1.12-1.31,2.23-2,3.34a33.29,33.29,0,0,1-3.17,5c-.6.7-2,2.39-3.18,1.86-.88-.4-.85-3.18-.79-3.93.27-3.35,4.34-12.72,8.74-11.28,2.18.69,2.73-1.59.58-2.28Z" transform="translate(0 -0.03)"/><path class="cls-2" d="M56.45,11.14A20.11,20.11,0,0,0,46.91,20c-1.58,3-2.91,7.53.81,9.48s6.56-.1,8.84-3.1A145.05,145.05,0,0,0,66.64,11.76c.4-.68-2.93-2.12-3.5-1.2a49.78,49.78,0,0,0-5.77,13.15c-.39,1.45-1.44,3.84-.64,5.3.56,1.06,2.06,1.54,3.11,1.78,4,.93,6.45-2.32,8.63-5.12A76.91,76.91,0,0,0,76.3,13.06c.38-.75-3-2.12-3.51-1.21-3.86,6.89-7.72,13.78-10.94,21-1.59,3.58-2.91,7.24-4.24,10.92-1.21,3.38-3,7-6.92,7.42l3.18,1.25A26,26,0,0,1,57,38.14a6.89,6.89,0,0,1,5.3-3.71,22.83,22.83,0,0,0,5.41-1.64c8-3.71,12.47-11.83,16.23-19.38.38-.76-3-2.16-3.5-1.21a50,50,0,0,0-4.33,10.29c-.57,2.26-1.52,5.93.45,7.79a6.43,6.43,0,0,0,5.15,1.4c2.93-.53,4.24-3.47,6.61-4.93.67-.41-2.35-2.06-3.27-1.5-1.63,1-2.59,2.62-4.07,3.78-2.79,2.18-2-1.81-1.75-3.54.73-4.3,2.75-8.24,4.71-12.08l-3.5-1.21c-4.09,8.21-9.31,17.63-18.9,20.13-1.79.47-3.78.47-5.38,1.52A9.94,9.94,0,0,0,53,38.09,27.33,27.33,0,0,0,50.4,51.62c.05,1,2.46,1.34,3.18,1.26,3.11-.39,5.24-2.59,6.57-5.3C62,43.87,63,39.67,64.63,35.84A241.3,241.3,0,0,1,76.36,13.06l-3.57-1.24a83.61,83.61,0,0,1-5.11,8.85C66.82,22,65.91,23.21,65,24.43s-2.36,3.57-3.84,4c-1.79.58-.63-2.12-.37-3.13a49,49,0,0,1,1.5-4.73,50.54,50.54,0,0,1,4.39-8.84l-3.5-1.2C61,14.14,58.69,17.62,56.21,21c-1.14,1.55-2.26,3.13-3.45,4.64a11,11,0,0,1-2,2.06,4.89,4.89,0,0,1-1.65.89A.71.71,0,0,0,49,28c-1.72-1.93,1.47-7.16,2.57-8.73a19.48,19.48,0,0,1,8.1-6.61c.59-.27-2.26-1.95-3.26-1.5Z" transform="translate(0 -0.03)"/><path class="cls-2" d="M64.18,15.27c.23-1.84-.12-3.55-2-4.3s-3.89-.11-5.66.59c-.62.25-1.59.95-1.3,1.74s1.59.59,2.12.36a3.09,3.09,0,0,1,2.54-.33c1,.53.85,1.74.73,2.7-.2,1.59,3.36.7,3.54-.76Z" transform="translate(0 -0.03)"/><path class="cls-2" d="M4.73,9.86c7-.67,14-2.24,21-3a167.27,167.27,0,0,1,23-.91,170,170,0,0,1,43.7,7c.45.14-.45-1.22-.48-1.28-.38-.53-1-1.39-1.66-1.59A170.43,170.43,0,0,0,46.62,3a166.24,166.24,0,0,0-20.81.7C18,4.49,10.37,6.25,2.59,7,2.31,7,3.9,9.94,4.73,9.86Z" transform="translate(0 -0.03)"/><path class="cls-2" d="M77.88,8.26c3.4,0,3.41-5.3,0-5.3S74.46,8.26,77.88,8.26Z" transform="translate(0 -0.03)"/><path class="cls-2" d="M85,9.69c3.4,0,3.41-5.3,0-5.3S81.6,9.69,85,9.69Z" transform="translate(0 -0.03)"/></svg>